<mxfile host="app.diagrams.net" modified="2023-05-09T13:10:24.606Z" agent="Mozilla/5.0 (Windows NT 10.0; Win64; x64) AppleWebKit/537.36 (KHTML, like Gecko) Chrome/112.0.0.0 Safari/537.36" etag="R26ipPp-T5YTISM7KKuq" version="21.2.9" type="device">
  <diagram name="Σελίδα-1" id="Bl70txjf4vExH1SP9b4k">
    <mxGraphModel dx="2219" dy="2245" grid="1" gridSize="10" guides="1" tooltips="1" connect="1" arrows="1" fold="1" page="1" pageScale="1" pageWidth="1169" pageHeight="1654" math="0" shadow="0">
      <root>
        <mxCell id="0" />
        <mxCell id="1" parent="0" />
        <mxCell id="4WQ1bgYFmKU-CVnzv2Rh-1" value="" style="shape=umlLifeline;perimeter=lifelinePerimeter;whiteSpace=wrap;html=1;container=1;dropTarget=0;collapsible=0;recursiveResize=0;outlineConnect=0;portConstraint=eastwest;newEdgeStyle={&quot;edgeStyle&quot;:&quot;elbowEdgeStyle&quot;,&quot;elbow&quot;:&quot;vertical&quot;,&quot;curved&quot;:0,&quot;rounded&quot;:0};participant=umlActor;fontSize=16;" vertex="1" parent="1">
          <mxGeometry x="-140" y="58" width="20" height="300" as="geometry" />
        </mxCell>
        <mxCell id="4WQ1bgYFmKU-CVnzv2Rh-34" value="" style="html=1;points=[];perimeter=orthogonalPerimeter;outlineConnect=0;targetShapes=umlLifeline;portConstraint=eastwest;newEdgeStyle={&quot;edgeStyle&quot;:&quot;elbowEdgeStyle&quot;,&quot;elbow&quot;:&quot;vertical&quot;,&quot;curved&quot;:0,&quot;rounded&quot;:0};fontSize=16;" vertex="1" parent="4WQ1bgYFmKU-CVnzv2Rh-1">
          <mxGeometry x="5" y="82" width="10" height="138" as="geometry" />
        </mxCell>
        <mxCell id="4WQ1bgYFmKU-CVnzv2Rh-2" value="" style="shape=umlLifeline;perimeter=lifelinePerimeter;whiteSpace=wrap;html=1;container=1;dropTarget=0;collapsible=0;recursiveResize=0;outlineConnect=0;portConstraint=eastwest;newEdgeStyle={&quot;edgeStyle&quot;:&quot;elbowEdgeStyle&quot;,&quot;elbow&quot;:&quot;vertical&quot;,&quot;curved&quot;:0,&quot;rounded&quot;:0};participant=umlBoundary;fontSize=16;" vertex="1" parent="1">
          <mxGeometry x="600" y="60" width="50" height="380" as="geometry" />
        </mxCell>
        <mxCell id="4WQ1bgYFmKU-CVnzv2Rh-41" value="" style="html=1;points=[];perimeter=orthogonalPerimeter;outlineConnect=0;targetShapes=umlLifeline;portConstraint=eastwest;newEdgeStyle={&quot;edgeStyle&quot;:&quot;elbowEdgeStyle&quot;,&quot;elbow&quot;:&quot;vertical&quot;,&quot;curved&quot;:0,&quot;rounded&quot;:0};fontSize=16;" vertex="1" parent="4WQ1bgYFmKU-CVnzv2Rh-2">
          <mxGeometry x="25" y="250" width="10" height="10" as="geometry" />
        </mxCell>
        <mxCell id="4WQ1bgYFmKU-CVnzv2Rh-3" value="" style="shape=umlLifeline;perimeter=lifelinePerimeter;whiteSpace=wrap;html=1;container=1;dropTarget=0;collapsible=0;recursiveResize=0;outlineConnect=0;portConstraint=eastwest;newEdgeStyle={&quot;edgeStyle&quot;:&quot;elbowEdgeStyle&quot;,&quot;elbow&quot;:&quot;vertical&quot;,&quot;curved&quot;:0,&quot;rounded&quot;:0};participant=umlBoundary;fontSize=16;" vertex="1" parent="1">
          <mxGeometry x="420" y="60" width="50" height="370" as="geometry" />
        </mxCell>
        <mxCell id="4WQ1bgYFmKU-CVnzv2Rh-4" value="" style="shape=umlLifeline;perimeter=lifelinePerimeter;whiteSpace=wrap;html=1;container=1;dropTarget=0;collapsible=0;recursiveResize=0;outlineConnect=0;portConstraint=eastwest;newEdgeStyle={&quot;edgeStyle&quot;:&quot;elbowEdgeStyle&quot;,&quot;elbow&quot;:&quot;vertical&quot;,&quot;curved&quot;:0,&quot;rounded&quot;:0};participant=umlBoundary;fontSize=16;" vertex="1" parent="1">
          <mxGeometry x="230" y="58" width="50" height="382" as="geometry" />
        </mxCell>
        <mxCell id="4WQ1bgYFmKU-CVnzv2Rh-5" value="" style="shape=umlLifeline;perimeter=lifelinePerimeter;whiteSpace=wrap;html=1;container=1;dropTarget=0;collapsible=0;recursiveResize=0;outlineConnect=0;portConstraint=eastwest;newEdgeStyle={&quot;edgeStyle&quot;:&quot;elbowEdgeStyle&quot;,&quot;elbow&quot;:&quot;vertical&quot;,&quot;curved&quot;:0,&quot;rounded&quot;:0};participant=umlBoundary;fontSize=16;" vertex="1" parent="1">
          <mxGeometry x="-20" y="60" width="50" height="380" as="geometry" />
        </mxCell>
        <mxCell id="4WQ1bgYFmKU-CVnzv2Rh-35" value="" style="html=1;points=[];perimeter=orthogonalPerimeter;outlineConnect=0;targetShapes=umlLifeline;portConstraint=eastwest;newEdgeStyle={&quot;edgeStyle&quot;:&quot;elbowEdgeStyle&quot;,&quot;elbow&quot;:&quot;vertical&quot;,&quot;curved&quot;:0,&quot;rounded&quot;:0};fontSize=16;" vertex="1" parent="4WQ1bgYFmKU-CVnzv2Rh-5">
          <mxGeometry x="20" y="80" width="10" height="260" as="geometry" />
        </mxCell>
        <mxCell id="4WQ1bgYFmKU-CVnzv2Rh-6" value="" style="shape=umlLifeline;perimeter=lifelinePerimeter;whiteSpace=wrap;html=1;container=1;dropTarget=0;collapsible=0;recursiveResize=0;outlineConnect=0;portConstraint=eastwest;newEdgeStyle={&quot;edgeStyle&quot;:&quot;elbowEdgeStyle&quot;,&quot;elbow&quot;:&quot;vertical&quot;,&quot;curved&quot;:0,&quot;rounded&quot;:0};participant=umlEntity;fontSize=16;" vertex="1" parent="1">
          <mxGeometry x="325" y="60" width="40" height="300" as="geometry" />
        </mxCell>
        <mxCell id="4WQ1bgYFmKU-CVnzv2Rh-7" value="" style="shape=umlLifeline;perimeter=lifelinePerimeter;whiteSpace=wrap;html=1;container=1;dropTarget=0;collapsible=0;recursiveResize=0;outlineConnect=0;portConstraint=eastwest;newEdgeStyle={&quot;edgeStyle&quot;:&quot;elbowEdgeStyle&quot;,&quot;elbow&quot;:&quot;vertical&quot;,&quot;curved&quot;:0,&quot;rounded&quot;:0};participant=umlEntity;fontSize=16;" vertex="1" parent="1">
          <mxGeometry x="110" y="60" width="40" height="380" as="geometry" />
        </mxCell>
        <mxCell id="4WQ1bgYFmKU-CVnzv2Rh-36" value="" style="html=1;points=[];perimeter=orthogonalPerimeter;outlineConnect=0;targetShapes=umlLifeline;portConstraint=eastwest;newEdgeStyle={&quot;edgeStyle&quot;:&quot;elbowEdgeStyle&quot;,&quot;elbow&quot;:&quot;vertical&quot;,&quot;curved&quot;:0,&quot;rounded&quot;:0};fontSize=16;" vertex="1" parent="4WQ1bgYFmKU-CVnzv2Rh-7">
          <mxGeometry x="15" y="108" width="10" height="12" as="geometry" />
        </mxCell>
        <mxCell id="4WQ1bgYFmKU-CVnzv2Rh-8" value="" style="shape=umlLifeline;perimeter=lifelinePerimeter;whiteSpace=wrap;html=1;container=1;dropTarget=0;collapsible=0;recursiveResize=0;outlineConnect=0;portConstraint=eastwest;newEdgeStyle={&quot;edgeStyle&quot;:&quot;elbowEdgeStyle&quot;,&quot;elbow&quot;:&quot;vertical&quot;,&quot;curved&quot;:0,&quot;rounded&quot;:0};participant=umlBoundary;fontSize=16;" vertex="1" parent="1">
          <mxGeometry x="510" y="58" width="50" height="372" as="geometry" />
        </mxCell>
        <mxCell id="4WQ1bgYFmKU-CVnzv2Rh-9" value="σελ&lt;br&gt;αξιολ&lt;br&gt;διατροφολ" style="text;html=1;align=center;verticalAlign=middle;resizable=0;points=[];autosize=1;strokeColor=none;fillColor=none;fontSize=16;" vertex="1" parent="1">
          <mxGeometry x="-45" y="-22" width="100" height="70" as="geometry" />
        </mxCell>
        <mxCell id="4WQ1bgYFmKU-CVnzv2Rh-10" value="λιστα&amp;nbsp;&lt;br&gt;διατροφ" style="text;html=1;align=center;verticalAlign=middle;resizable=0;points=[];autosize=1;strokeColor=none;fillColor=none;fontSize=16;" vertex="1" parent="1">
          <mxGeometry x="90" y="-12" width="80" height="50" as="geometry" />
        </mxCell>
        <mxCell id="4WQ1bgYFmKU-CVnzv2Rh-11" value="σελ&lt;br&gt;επιλογης&amp;nbsp;&lt;br&gt;διατροφ" style="text;html=1;align=center;verticalAlign=middle;resizable=0;points=[];autosize=1;strokeColor=none;fillColor=none;fontSize=16;" vertex="1" parent="1">
          <mxGeometry x="210" y="-22" width="90" height="70" as="geometry" />
        </mxCell>
        <mxCell id="4WQ1bgYFmKU-CVnzv2Rh-12" value="λιστα&lt;br&gt;τα ραντεβου&lt;br&gt;μου" style="text;html=1;align=center;verticalAlign=middle;resizable=0;points=[];autosize=1;strokeColor=none;fillColor=none;fontSize=16;" vertex="1" parent="1">
          <mxGeometry x="290" y="-22" width="110" height="70" as="geometry" />
        </mxCell>
        <mxCell id="4WQ1bgYFmKU-CVnzv2Rh-13" value="σελ&lt;br&gt;συμπληρωσης&lt;br&gt;φορμας" style="text;html=1;align=center;verticalAlign=middle;resizable=0;points=[];autosize=1;strokeColor=none;fillColor=none;fontSize=16;" vertex="1" parent="1">
          <mxGeometry x="380" y="-32" width="130" height="70" as="geometry" />
        </mxCell>
        <mxCell id="4WQ1bgYFmKU-CVnzv2Rh-14" value="μηνυμα&lt;br&gt;σφαλματος" style="text;html=1;align=center;verticalAlign=middle;resizable=0;points=[];autosize=1;strokeColor=none;fillColor=none;fontSize=16;" vertex="1" parent="1">
          <mxGeometry x="485" y="-22" width="100" height="50" as="geometry" />
        </mxCell>
        <mxCell id="4WQ1bgYFmKU-CVnzv2Rh-15" value="μηνυμα&amp;nbsp;&lt;br&gt;επιτυχους&lt;br&gt;υποβολης" style="text;html=1;align=center;verticalAlign=middle;resizable=0;points=[];autosize=1;strokeColor=none;fillColor=none;fontSize=16;" vertex="1" parent="1">
          <mxGeometry x="585" y="-42" width="90" height="70" as="geometry" />
        </mxCell>
        <mxCell id="4WQ1bgYFmKU-CVnzv2Rh-16" value="rateNutrionitst()" style="endArrow=classic;html=1;rounded=0;fontSize=12;startSize=8;endSize=8;curved=1;" edge="1" parent="1" source="4WQ1bgYFmKU-CVnzv2Rh-1" target="4WQ1bgYFmKU-CVnzv2Rh-5">
          <mxGeometry x="-0.0983" y="20" width="50" height="50" relative="1" as="geometry">
            <mxPoint x="190" y="280" as="sourcePoint" />
            <mxPoint x="240" y="230" as="targetPoint" />
            <Array as="points">
              <mxPoint x="-80" y="140" />
            </Array>
            <mxPoint as="offset" />
          </mxGeometry>
        </mxCell>
        <mxCell id="4WQ1bgYFmKU-CVnzv2Rh-17" value="getData()" style="endArrow=classic;html=1;rounded=0;fontSize=12;startSize=8;endSize=8;curved=1;" edge="1" parent="1" source="4WQ1bgYFmKU-CVnzv2Rh-5" target="4WQ1bgYFmKU-CVnzv2Rh-7">
          <mxGeometry x="-0.1061" y="10" width="50" height="50" relative="1" as="geometry">
            <mxPoint x="190" y="280" as="sourcePoint" />
            <mxPoint x="240" y="230" as="targetPoint" />
            <Array as="points">
              <mxPoint x="50" y="170" />
            </Array>
            <mxPoint as="offset" />
          </mxGeometry>
        </mxCell>
        <mxCell id="4WQ1bgYFmKU-CVnzv2Rh-18" value="show()" style="endArrow=classic;html=1;rounded=0;fontSize=12;startSize=8;endSize=8;curved=1;" edge="1" parent="1" source="4WQ1bgYFmKU-CVnzv2Rh-7" target="4WQ1bgYFmKU-CVnzv2Rh-4">
          <mxGeometry width="50" height="50" relative="1" as="geometry">
            <mxPoint x="190" y="280" as="sourcePoint" />
            <mxPoint x="240" y="230" as="targetPoint" />
            <Array as="points">
              <mxPoint x="210" y="180" />
            </Array>
          </mxGeometry>
        </mxCell>
        <mxCell id="4WQ1bgYFmKU-CVnzv2Rh-19" value="" style="endArrow=classic;html=1;rounded=0;fontSize=12;startSize=8;endSize=8;curved=1;" edge="1" parent="1" source="4WQ1bgYFmKU-CVnzv2Rh-4">
          <mxGeometry width="50" height="50" relative="1" as="geometry">
            <mxPoint x="190" y="280" as="sourcePoint" />
            <mxPoint x="350" y="220" as="targetPoint" />
            <Array as="points">
              <mxPoint x="320" y="220" />
            </Array>
          </mxGeometry>
        </mxCell>
        <mxCell id="4WQ1bgYFmKU-CVnzv2Rh-20" value="checkReserve()" style="edgeLabel;html=1;align=center;verticalAlign=middle;resizable=0;points=[];fontSize=11;" vertex="1" connectable="0" parent="4WQ1bgYFmKU-CVnzv2Rh-19">
          <mxGeometry x="-0.3934" y="2" relative="1" as="geometry">
            <mxPoint x="17" y="-8" as="offset" />
          </mxGeometry>
        </mxCell>
        <mxCell id="4WQ1bgYFmKU-CVnzv2Rh-21" value="reserve done?" style="shape=umlFrame;whiteSpace=wrap;html=1;pointerEvents=0;fontSize=16;" vertex="1" parent="1">
          <mxGeometry x="345" y="210" width="305" height="230" as="geometry" />
        </mxCell>
        <mxCell id="4WQ1bgYFmKU-CVnzv2Rh-22" value="yes" style="text;html=1;align=center;verticalAlign=middle;resizable=0;points=[];autosize=1;strokeColor=none;fillColor=none;fontSize=16;" vertex="1" parent="1">
          <mxGeometry x="400" y="210" width="50" height="30" as="geometry" />
        </mxCell>
        <mxCell id="4WQ1bgYFmKU-CVnzv2Rh-23" value="" style="endArrow=none;dashed=1;html=1;dashPattern=1 3;strokeWidth=2;rounded=0;fontSize=12;startSize=8;endSize=8;curved=1;entryX=0.999;entryY=0.496;entryDx=0;entryDy=0;entryPerimeter=0;" edge="1" parent="1" source="4WQ1bgYFmKU-CVnzv2Rh-6" target="4WQ1bgYFmKU-CVnzv2Rh-21">
          <mxGeometry width="50" height="50" relative="1" as="geometry">
            <mxPoint x="340" y="200" as="sourcePoint" />
            <mxPoint x="390" y="150" as="targetPoint" />
            <Array as="points">
              <mxPoint x="500" y="320" />
            </Array>
          </mxGeometry>
        </mxCell>
        <mxCell id="4WQ1bgYFmKU-CVnzv2Rh-24" value="show()" style="endArrow=classic;html=1;rounded=0;fontSize=12;startSize=8;endSize=8;curved=1;" edge="1" parent="1" source="4WQ1bgYFmKU-CVnzv2Rh-6" target="4WQ1bgYFmKU-CVnzv2Rh-3">
          <mxGeometry x="0.11" y="10" width="50" height="50" relative="1" as="geometry">
            <mxPoint x="340" y="200" as="sourcePoint" />
            <mxPoint x="390" y="150" as="targetPoint" />
            <Array as="points">
              <mxPoint x="420" y="260" />
            </Array>
            <mxPoint as="offset" />
          </mxGeometry>
        </mxCell>
        <mxCell id="4WQ1bgYFmKU-CVnzv2Rh-25" value="choseNutritionist()" style="endArrow=classic;html=1;rounded=0;fontSize=12;startSize=8;endSize=8;curved=1;" edge="1" parent="1" source="4WQ1bgYFmKU-CVnzv2Rh-37" target="4WQ1bgYFmKU-CVnzv2Rh-4">
          <mxGeometry x="NaN" y="155" width="50" height="50" relative="1" as="geometry">
            <mxPoint x="90" y="200" as="sourcePoint" />
            <mxPoint x="140" y="150" as="targetPoint" />
            <mxPoint x="-154" y="5" as="offset" />
          </mxGeometry>
        </mxCell>
        <mxCell id="4WQ1bgYFmKU-CVnzv2Rh-27" value="fillForm()" style="endArrow=classic;html=1;rounded=0;fontSize=12;startSize=8;endSize=8;curved=1;" edge="1" parent="1" source="4WQ1bgYFmKU-CVnzv2Rh-1" target="4WQ1bgYFmKU-CVnzv2Rh-3">
          <mxGeometry width="50" height="50" relative="1" as="geometry">
            <mxPoint x="-90" y="200" as="sourcePoint" />
            <mxPoint x="-40" y="150" as="targetPoint" />
            <Array as="points">
              <mxPoint x="210" y="280" />
            </Array>
          </mxGeometry>
        </mxCell>
        <mxCell id="4WQ1bgYFmKU-CVnzv2Rh-28" value="" style="endArrow=classic;html=1;rounded=0;fontSize=12;startSize=8;endSize=8;curved=1;" edge="1" parent="1" source="4WQ1bgYFmKU-CVnzv2Rh-3" target="4WQ1bgYFmKU-CVnzv2Rh-2">
          <mxGeometry width="50" height="50" relative="1" as="geometry">
            <mxPoint x="430" y="200" as="sourcePoint" />
            <mxPoint x="480" y="150" as="targetPoint" />
            <Array as="points">
              <mxPoint x="490" y="310" />
            </Array>
          </mxGeometry>
        </mxCell>
        <mxCell id="4WQ1bgYFmKU-CVnzv2Rh-29" value="no" style="text;html=1;align=center;verticalAlign=middle;resizable=0;points=[];autosize=1;strokeColor=none;fillColor=none;fontSize=16;" vertex="1" parent="1">
          <mxGeometry x="345" y="310" width="40" height="30" as="geometry" />
        </mxCell>
        <mxCell id="4WQ1bgYFmKU-CVnzv2Rh-31" value="show()" style="endArrow=classic;html=1;rounded=0;fontSize=12;startSize=8;endSize=8;curved=1;" edge="1" parent="1" source="4WQ1bgYFmKU-CVnzv2Rh-6" target="4WQ1bgYFmKU-CVnzv2Rh-8">
          <mxGeometry width="50" height="50" relative="1" as="geometry">
            <mxPoint x="380" y="200" as="sourcePoint" />
            <mxPoint x="430" y="150" as="targetPoint" />
            <Array as="points">
              <mxPoint x="470" y="340" />
            </Array>
          </mxGeometry>
        </mxCell>
        <mxCell id="4WQ1bgYFmKU-CVnzv2Rh-32" value="show()" style="endArrow=classic;html=1;rounded=0;fontSize=12;startSize=8;endSize=8;curved=1;dashed=1;" edge="1" parent="1" source="4WQ1bgYFmKU-CVnzv2Rh-8" target="4WQ1bgYFmKU-CVnzv2Rh-5">
          <mxGeometry width="50" height="50" relative="1" as="geometry">
            <mxPoint x="400" y="200" as="sourcePoint" />
            <mxPoint x="450" y="150" as="targetPoint" />
            <Array as="points">
              <mxPoint x="100" y="400" />
            </Array>
          </mxGeometry>
        </mxCell>
        <mxCell id="4WQ1bgYFmKU-CVnzv2Rh-38" value="" style="endArrow=classic;html=1;rounded=0;fontSize=12;startSize=8;endSize=8;curved=1;" edge="1" parent="1" source="4WQ1bgYFmKU-CVnzv2Rh-1" target="4WQ1bgYFmKU-CVnzv2Rh-37">
          <mxGeometry width="50" height="50" relative="1" as="geometry">
            <mxPoint x="-130" y="208" as="sourcePoint" />
            <mxPoint x="255" y="208" as="targetPoint" />
          </mxGeometry>
        </mxCell>
        <mxCell id="4WQ1bgYFmKU-CVnzv2Rh-37" value="" style="html=1;points=[];perimeter=orthogonalPerimeter;outlineConnect=0;targetShapes=umlLifeline;portConstraint=eastwest;newEdgeStyle={&quot;edgeStyle&quot;:&quot;elbowEdgeStyle&quot;,&quot;elbow&quot;:&quot;vertical&quot;,&quot;curved&quot;:0,&quot;rounded&quot;:0};fontSize=16;" vertex="1" parent="1">
          <mxGeometry x="250" y="180" width="10" height="30" as="geometry" />
        </mxCell>
        <mxCell id="4WQ1bgYFmKU-CVnzv2Rh-40" value="" style="html=1;points=[];perimeter=orthogonalPerimeter;outlineConnect=0;targetShapes=umlLifeline;portConstraint=eastwest;newEdgeStyle={&quot;edgeStyle&quot;:&quot;elbowEdgeStyle&quot;,&quot;elbow&quot;:&quot;vertical&quot;,&quot;curved&quot;:0,&quot;rounded&quot;:0};fontSize=16;" vertex="1" parent="1">
          <mxGeometry x="440" y="260" width="10" height="50" as="geometry" />
        </mxCell>
        <mxCell id="4WQ1bgYFmKU-CVnzv2Rh-42" value="" style="html=1;points=[];perimeter=orthogonalPerimeter;outlineConnect=0;targetShapes=umlLifeline;portConstraint=eastwest;newEdgeStyle={&quot;edgeStyle&quot;:&quot;elbowEdgeStyle&quot;,&quot;elbow&quot;:&quot;vertical&quot;,&quot;curved&quot;:0,&quot;rounded&quot;:0};fontSize=16;" vertex="1" parent="1">
          <mxGeometry x="530" y="340" width="10" height="60" as="geometry" />
        </mxCell>
      </root>
    </mxGraphModel>
  </diagram>
</mxfile>
